<mxfile host="app.diagrams.net" modified="2024-03-29T02:31:09.266Z" agent="Mozilla/5.0 (Windows NT 10.0; Win64; x64) AppleWebKit/537.36 (KHTML, like Gecko) Chrome/123.0.0.0 Safari/537.36" etag="WNGbFl7FBMM0UEN8NI_B" version="24.2.0" type="device">
  <diagram name="Page-1" id="E-Kpoddx9fXxOGg9oX4y">
    <mxGraphModel dx="2336" dy="619" grid="1" gridSize="10" guides="1" tooltips="1" connect="1" arrows="1" fold="1" page="1" pageScale="1" pageWidth="1169" pageHeight="1654" math="0" shadow="0">
      <root>
        <mxCell id="0" />
        <mxCell id="1" parent="0" />
        <mxCell id="ImFzBhfU0JCTrMEGlSix-1" value="User" style="shape=umlLifeline;perimeter=lifelinePerimeter;whiteSpace=wrap;html=1;container=1;dropTarget=0;collapsible=0;recursiveResize=0;outlineConnect=0;portConstraint=eastwest;newEdgeStyle={&quot;edgeStyle&quot;:&quot;elbowEdgeStyle&quot;,&quot;elbow&quot;:&quot;vertical&quot;,&quot;curved&quot;:0,&quot;rounded&quot;:0};fillColor=#bac8d3;strokeColor=#23445d;shadow=1;" vertex="1" parent="1">
          <mxGeometry x="70" y="527" width="100" height="583" as="geometry" />
        </mxCell>
        <mxCell id="ImFzBhfU0JCTrMEGlSix-2" value="" style="html=1;points=[[0,0,0,0,5],[0,1,0,0,-5],[1,0,0,0,5],[1,1,0,0,-5]];perimeter=orthogonalPerimeter;outlineConnect=0;targetShapes=umlLifeline;portConstraint=eastwest;newEdgeStyle={&quot;curved&quot;:0,&quot;rounded&quot;:0};fillColor=#bac8d3;strokeColor=#23445d;shadow=1;" vertex="1" parent="ImFzBhfU0JCTrMEGlSix-1">
          <mxGeometry x="45" y="70" width="10" height="60" as="geometry" />
        </mxCell>
        <mxCell id="ImFzBhfU0JCTrMEGlSix-3" value="" style="shape=umlDestroy;whiteSpace=wrap;html=1;strokeWidth=3;targetShapes=umlLifeline;fillColor=#bac8d3;strokeColor=#23445d;aspect=fixed;fontStyle=0;shadow=1;" vertex="1" parent="ImFzBhfU0JCTrMEGlSix-1">
          <mxGeometry x="45" y="582" width="10" height="10" as="geometry" />
        </mxCell>
        <mxCell id="ImFzBhfU0JCTrMEGlSix-4" value="UI" style="shape=umlLifeline;perimeter=lifelinePerimeter;whiteSpace=wrap;html=1;container=1;dropTarget=0;collapsible=0;recursiveResize=0;outlineConnect=0;portConstraint=eastwest;newEdgeStyle={&quot;edgeStyle&quot;:&quot;elbowEdgeStyle&quot;,&quot;elbow&quot;:&quot;vertical&quot;,&quot;curved&quot;:0,&quot;rounded&quot;:0};fillColor=#bac8d3;strokeColor=#23445d;shadow=1;" vertex="1" parent="1">
          <mxGeometry x="230" y="527" width="100" height="583" as="geometry" />
        </mxCell>
        <mxCell id="ImFzBhfU0JCTrMEGlSix-5" value="" style="html=1;points=[[0,0,0,0,5],[0,1,0,0,-5],[1,0,0,0,5],[1,1,0,0,-5]];perimeter=orthogonalPerimeter;outlineConnect=0;targetShapes=umlLifeline;portConstraint=eastwest;newEdgeStyle={&quot;curved&quot;:0,&quot;rounded&quot;:0};fillColor=#bac8d3;strokeColor=#23445d;shadow=1;" vertex="1" parent="ImFzBhfU0JCTrMEGlSix-4">
          <mxGeometry x="45" y="70" width="10" height="90" as="geometry" />
        </mxCell>
        <mxCell id="ImFzBhfU0JCTrMEGlSix-6" value="" style="html=1;points=[[0,0,0,0,5],[0,1,0,0,-5],[1,0,0,0,5],[1,1,0,0,-5]];perimeter=orthogonalPerimeter;outlineConnect=0;targetShapes=umlLifeline;portConstraint=eastwest;newEdgeStyle={&quot;curved&quot;:0,&quot;rounded&quot;:0};fillColor=#bac8d3;strokeColor=#23445d;shadow=1;" vertex="1" parent="ImFzBhfU0JCTrMEGlSix-4">
          <mxGeometry x="45" y="216" width="10" height="30" as="geometry" />
        </mxCell>
        <mxCell id="ImFzBhfU0JCTrMEGlSix-7" value="" style="shape=umlDestroy;whiteSpace=wrap;html=1;strokeWidth=3;targetShapes=umlLifeline;fillColor=#bac8d3;strokeColor=#23445d;aspect=fixed;fontStyle=0;shadow=1;" vertex="1" parent="ImFzBhfU0JCTrMEGlSix-4">
          <mxGeometry x="45" y="582" width="10" height="10" as="geometry" />
        </mxCell>
        <mxCell id="ImFzBhfU0JCTrMEGlSix-8" value="API" style="shape=umlLifeline;perimeter=lifelinePerimeter;whiteSpace=wrap;html=1;container=1;dropTarget=0;collapsible=0;recursiveResize=0;outlineConnect=0;portConstraint=eastwest;newEdgeStyle={&quot;edgeStyle&quot;:&quot;elbowEdgeStyle&quot;,&quot;elbow&quot;:&quot;vertical&quot;,&quot;curved&quot;:0,&quot;rounded&quot;:0};fillColor=#bac8d3;strokeColor=#23445d;shadow=1;" vertex="1" parent="1">
          <mxGeometry x="370" y="527" width="100" height="583" as="geometry" />
        </mxCell>
        <mxCell id="ImFzBhfU0JCTrMEGlSix-9" value="" style="html=1;points=[[0,0,0,0,5],[0,1,0,0,-5],[1,0,0,0,5],[1,1,0,0,-5]];perimeter=orthogonalPerimeter;outlineConnect=0;targetShapes=umlLifeline;portConstraint=eastwest;newEdgeStyle={&quot;curved&quot;:0,&quot;rounded&quot;:0};fillColor=#bac8d3;strokeColor=#23445d;shadow=1;" vertex="1" parent="ImFzBhfU0JCTrMEGlSix-8">
          <mxGeometry x="45" y="140" width="10" height="403" as="geometry" />
        </mxCell>
        <mxCell id="ImFzBhfU0JCTrMEGlSix-10" value="" style="shape=umlDestroy;whiteSpace=wrap;html=1;strokeWidth=3;targetShapes=umlLifeline;fillColor=#bac8d3;strokeColor=#23445d;aspect=fixed;fontStyle=0;shadow=1;" vertex="1" parent="ImFzBhfU0JCTrMEGlSix-8">
          <mxGeometry x="45" y="582" width="10" height="10" as="geometry" />
        </mxCell>
        <mxCell id="ImFzBhfU0JCTrMEGlSix-11" value="Database" style="shape=umlLifeline;perimeter=lifelinePerimeter;whiteSpace=wrap;html=1;container=1;dropTarget=0;collapsible=0;recursiveResize=0;outlineConnect=0;portConstraint=eastwest;newEdgeStyle={&quot;edgeStyle&quot;:&quot;elbowEdgeStyle&quot;,&quot;elbow&quot;:&quot;vertical&quot;,&quot;curved&quot;:0,&quot;rounded&quot;:0};fillColor=#bac8d3;strokeColor=#23445d;shadow=1;" vertex="1" parent="1">
          <mxGeometry x="520" y="527" width="100" height="583" as="geometry" />
        </mxCell>
        <mxCell id="ImFzBhfU0JCTrMEGlSix-12" value="" style="html=1;points=[[0,0,0,0,5],[0,1,0,0,-5],[1,0,0,0,5],[1,1,0,0,-5]];perimeter=orthogonalPerimeter;outlineConnect=0;targetShapes=umlLifeline;portConstraint=eastwest;newEdgeStyle={&quot;curved&quot;:0,&quot;rounded&quot;:0};fillColor=#bac8d3;strokeColor=#23445d;shadow=1;" vertex="1" parent="ImFzBhfU0JCTrMEGlSix-11">
          <mxGeometry x="45" y="146" width="10" height="40" as="geometry" />
        </mxCell>
        <mxCell id="ImFzBhfU0JCTrMEGlSix-13" value="" style="shape=umlDestroy;whiteSpace=wrap;html=1;strokeWidth=3;targetShapes=umlLifeline;fillColor=#bac8d3;strokeColor=#23445d;aspect=fixed;fontStyle=0;shadow=1;" vertex="1" parent="ImFzBhfU0JCTrMEGlSix-11">
          <mxGeometry x="45" y="582" width="10" height="10" as="geometry" />
        </mxCell>
        <mxCell id="ImFzBhfU0JCTrMEGlSix-14" value="Select files and/or folder&lt;div&gt;to download&lt;/div&gt;" style="html=1;verticalAlign=bottom;endArrow=block;curved=0;rounded=0;shadow=1;" edge="1" parent="1">
          <mxGeometry width="80" relative="1" as="geometry">
            <mxPoint x="125" y="614.0000000000001" as="sourcePoint" />
            <mxPoint x="275" y="614.0000000000001" as="targetPoint" />
          </mxGeometry>
        </mxCell>
        <mxCell id="ImFzBhfU0JCTrMEGlSix-15" value="POST:material/download&lt;div&gt;{files,folders,path&lt;/div&gt;&lt;div&gt;material,token}&lt;/div&gt;" style="html=1;verticalAlign=bottom;endArrow=block;curved=0;rounded=0;shadow=1;" edge="1" parent="1">
          <mxGeometry width="80" relative="1" as="geometry">
            <mxPoint x="285" y="675" as="sourcePoint" />
            <mxPoint x="415" y="675" as="targetPoint" />
          </mxGeometry>
        </mxCell>
        <mxCell id="ImFzBhfU0JCTrMEGlSix-16" value="Find user" style="html=1;verticalAlign=bottom;endArrow=block;curved=0;rounded=0;shadow=1;" edge="1" parent="1">
          <mxGeometry width="80" relative="1" as="geometry">
            <mxPoint x="425" y="684" as="sourcePoint" />
            <mxPoint x="565" y="684" as="targetPoint" />
          </mxGeometry>
        </mxCell>
        <mxCell id="ImFzBhfU0JCTrMEGlSix-17" value="User" style="html=1;verticalAlign=bottom;endArrow=open;dashed=1;endSize=8;curved=0;rounded=0;shadow=1;" edge="1" parent="1">
          <mxGeometry relative="1" as="geometry">
            <mxPoint x="565.0000000000001" y="704.5" as="sourcePoint" />
            <mxPoint x="424.9999999999999" y="704.5" as="targetPoint" />
          </mxGeometry>
        </mxCell>
        <mxCell id="ImFzBhfU0JCTrMEGlSix-18" value="ALT" style="shape=umlFrame;whiteSpace=wrap;html=1;pointerEvents=0;width=60;height=30;fillColor=#b1ddf0;strokeColor=#10739e;fontStyle=1;shadow=1;" vertex="1" parent="1">
          <mxGeometry y="714" width="800" height="386" as="geometry" />
        </mxCell>
        <mxCell id="ImFzBhfU0JCTrMEGlSix-19" value="&lt;b&gt;&lt;font color=&quot;#cc0000&quot;&gt;[Unauthorized]&lt;/font&gt;&lt;/b&gt;" style="text;html=1;align=center;verticalAlign=middle;resizable=0;points=[];autosize=1;strokeColor=none;fillColor=none;shadow=1;" vertex="1" parent="1">
          <mxGeometry x="-8" y="741" width="110" height="30" as="geometry" />
        </mxCell>
        <mxCell id="ImFzBhfU0JCTrMEGlSix-20" value="401-unauthorized" style="html=1;verticalAlign=bottom;endArrow=open;dashed=1;endSize=8;curved=0;rounded=0;shadow=1;" edge="1" parent="1">
          <mxGeometry relative="1" as="geometry">
            <mxPoint x="415" y="750.0000000000001" as="sourcePoint" />
            <mxPoint x="285" y="750.0000000000001" as="targetPoint" />
          </mxGeometry>
        </mxCell>
        <mxCell id="ImFzBhfU0JCTrMEGlSix-21" value="user not authorized" style="html=1;verticalAlign=bottom;endArrow=open;dashed=1;endSize=8;curved=0;rounded=0;shadow=1;" edge="1" parent="1">
          <mxGeometry relative="1" as="geometry">
            <mxPoint x="275" y="764" as="sourcePoint" />
            <mxPoint x="125" y="764" as="targetPoint" />
          </mxGeometry>
        </mxCell>
        <mxCell id="ImFzBhfU0JCTrMEGlSix-22" value="" style="html=1;points=[[0,0,0,0,5],[0,1,0,0,-5],[1,0,0,0,5],[1,1,0,0,-5]];perimeter=orthogonalPerimeter;outlineConnect=0;targetShapes=umlLifeline;portConstraint=eastwest;newEdgeStyle={&quot;curved&quot;:0,&quot;rounded&quot;:0};fillColor=#bac8d3;strokeColor=#23445d;shadow=1;" vertex="1" parent="1">
          <mxGeometry x="115" y="756" width="10" height="20" as="geometry" />
        </mxCell>
        <mxCell id="ImFzBhfU0JCTrMEGlSix-23" value="" style="endArrow=none;dashed=1;html=1;rounded=0;fillColor=#b1ddf0;strokeColor=#10739e;fontStyle=1;exitX=0;exitY=0.305;exitDx=0;exitDy=0;exitPerimeter=0;entryX=0.999;entryY=0.183;entryDx=0;entryDy=0;entryPerimeter=0;shadow=1;" edge="1" parent="1" target="ImFzBhfU0JCTrMEGlSix-18">
          <mxGeometry width="50" height="50" relative="1" as="geometry">
            <mxPoint x="1.9499999999997726" y="786.7399999999999" as="sourcePoint" />
            <mxPoint x="649.9999999999998" y="785.9999999999999" as="targetPoint" />
          </mxGeometry>
        </mxCell>
        <mxCell id="ImFzBhfU0JCTrMEGlSix-24" value="&lt;b&gt;&lt;font color=&quot;#66b2ff&quot;&gt;[Authorized]&lt;/font&gt;&lt;/b&gt;" style="text;html=1;align=center;verticalAlign=middle;resizable=0;points=[];autosize=1;strokeColor=none;fillColor=none;shadow=1;" vertex="1" parent="1">
          <mxGeometry x="-4" y="784" width="90" height="30" as="geometry" />
        </mxCell>
        <mxCell id="ImFzBhfU0JCTrMEGlSix-25" value="" style="html=1;points=[[0,0,0,0,5],[0,1,0,0,-5],[1,0,0,0,5],[1,1,0,0,-5]];perimeter=orthogonalPerimeter;outlineConnect=0;targetShapes=umlLifeline;portConstraint=eastwest;newEdgeStyle={&quot;curved&quot;:0,&quot;rounded&quot;:0};fillColor=#bac8d3;strokeColor=#23445d;shadow=1;" vertex="1" parent="1">
          <mxGeometry x="275" y="1022" width="10" height="32" as="geometry" />
        </mxCell>
        <mxCell id="ImFzBhfU0JCTrMEGlSix-26" value="" style="html=1;points=[[0,0,0,0,5],[0,1,0,0,-5],[1,0,0,0,5],[1,1,0,0,-5]];perimeter=orthogonalPerimeter;outlineConnect=0;targetShapes=umlLifeline;portConstraint=eastwest;newEdgeStyle={&quot;curved&quot;:0,&quot;rounded&quot;:0};fillColor=#bac8d3;strokeColor=#23445d;shadow=1;" vertex="1" parent="1">
          <mxGeometry x="115" y="1034" width="10" height="20" as="geometry" />
        </mxCell>
        <mxCell id="ImFzBhfU0JCTrMEGlSix-27" value="zip donwloaded" style="html=1;verticalAlign=bottom;endArrow=open;dashed=1;endSize=8;curved=0;rounded=0;shadow=1;" edge="1" parent="1">
          <mxGeometry relative="1" as="geometry">
            <mxPoint x="275" y="1044" as="sourcePoint" />
            <mxPoint x="125" y="1044" as="targetPoint" />
          </mxGeometry>
        </mxCell>
        <mxCell id="ImFzBhfU0JCTrMEGlSix-28" value="Get file from cloud" style="html=1;verticalAlign=bottom;endArrow=block;curved=0;rounded=0;shadow=1;" edge="1" parent="1">
          <mxGeometry width="80" relative="1" as="geometry">
            <mxPoint x="425" y="906.78" as="sourcePoint" />
            <mxPoint x="725" y="906.78" as="targetPoint" />
          </mxGeometry>
        </mxCell>
        <mxCell id="ImFzBhfU0JCTrMEGlSix-29" value="" style="html=1;points=[[0,0,0,0,5],[0,1,0,0,-5],[1,0,0,0,5],[1,1,0,0,-5]];perimeter=orthogonalPerimeter;outlineConnect=0;targetShapes=umlLifeline;portConstraint=eastwest;newEdgeStyle={&quot;curved&quot;:0,&quot;rounded&quot;:0};fillColor=#bac8d3;strokeColor=#23445d;shadow=1;" vertex="1" parent="1">
          <mxGeometry x="565" y="804" width="10" height="29" as="geometry" />
        </mxCell>
        <mxCell id="ImFzBhfU0JCTrMEGlSix-30" value="200-zip" style="html=1;verticalAlign=bottom;endArrow=open;dashed=1;endSize=8;curved=0;rounded=0;entryX=1;entryY=0;entryDx=0;entryDy=5;entryPerimeter=0;shadow=1;" edge="1" parent="1">
          <mxGeometry relative="1" as="geometry">
            <mxPoint x="415" y="1035.22" as="sourcePoint" />
            <mxPoint x="285" y="1035.22" as="targetPoint" />
          </mxGeometry>
        </mxCell>
        <mxCell id="ImFzBhfU0JCTrMEGlSix-31" value="Firebase&lt;div&gt;Storage&lt;/div&gt;" style="shape=umlLifeline;perimeter=lifelinePerimeter;whiteSpace=wrap;html=1;container=1;dropTarget=0;collapsible=0;recursiveResize=0;outlineConnect=0;portConstraint=eastwest;newEdgeStyle={&quot;edgeStyle&quot;:&quot;elbowEdgeStyle&quot;,&quot;elbow&quot;:&quot;vertical&quot;,&quot;curved&quot;:0,&quot;rounded&quot;:0};fillColor=#bac8d3;strokeColor=#23445d;shadow=1;" vertex="1" parent="1">
          <mxGeometry x="680" y="527" width="100" height="583" as="geometry" />
        </mxCell>
        <mxCell id="ImFzBhfU0JCTrMEGlSix-32" value="" style="html=1;points=[[0,0,0,0,5],[0,1,0,0,-5],[1,0,0,0,5],[1,1,0,0,-5]];perimeter=orthogonalPerimeter;outlineConnect=0;targetShapes=umlLifeline;portConstraint=eastwest;newEdgeStyle={&quot;curved&quot;:0,&quot;rounded&quot;:0};fillColor=#bac8d3;strokeColor=#23445d;shadow=1;" vertex="1" parent="ImFzBhfU0JCTrMEGlSix-31">
          <mxGeometry x="45" y="356" width="10" height="76" as="geometry" />
        </mxCell>
        <mxCell id="ImFzBhfU0JCTrMEGlSix-33" value="" style="shape=umlDestroy;whiteSpace=wrap;html=1;strokeWidth=3;targetShapes=umlLifeline;fillColor=#bac8d3;strokeColor=#23445d;aspect=fixed;fontStyle=0;shadow=1;" vertex="1" parent="ImFzBhfU0JCTrMEGlSix-31">
          <mxGeometry x="45" y="582" width="10" height="10" as="geometry" />
        </mxCell>
        <mxCell id="ImFzBhfU0JCTrMEGlSix-34" value="Find material" style="html=1;verticalAlign=bottom;endArrow=block;curved=0;rounded=0;shadow=1;" edge="1" parent="1">
          <mxGeometry width="80" relative="1" as="geometry">
            <mxPoint x="425" y="810.3299999999999" as="sourcePoint" />
            <mxPoint x="565" y="810.3299999999999" as="targetPoint" />
          </mxGeometry>
        </mxCell>
        <mxCell id="ImFzBhfU0JCTrMEGlSix-35" value="File content" style="html=1;verticalAlign=bottom;endArrow=open;dashed=1;endSize=8;curved=0;rounded=0;shadow=1;" edge="1" parent="1">
          <mxGeometry relative="1" as="geometry">
            <mxPoint x="725" y="941" as="sourcePoint" />
            <mxPoint x="425" y="941" as="targetPoint" />
          </mxGeometry>
        </mxCell>
        <mxCell id="ImFzBhfU0JCTrMEGlSix-36" value="Material" style="html=1;verticalAlign=bottom;endArrow=open;dashed=1;endSize=8;curved=0;rounded=0;shadow=1;" edge="1" parent="1">
          <mxGeometry relative="1" as="geometry">
            <mxPoint x="565.0000000000001" y="829" as="sourcePoint" />
            <mxPoint x="424.9999999999999" y="829" as="targetPoint" />
          </mxGeometry>
        </mxCell>
        <mxCell id="ImFzBhfU0JCTrMEGlSix-37" value="Download" style="html=1;verticalAlign=bottom;endArrow=block;curved=0;rounded=0;shadow=1;" edge="1" parent="1">
          <mxGeometry width="80" relative="1" as="geometry">
            <mxPoint x="125" y="644.0000000000001" as="sourcePoint" />
            <mxPoint x="275" y="644.0000000000001" as="targetPoint" />
          </mxGeometry>
        </mxCell>
        <mxCell id="ImFzBhfU0JCTrMEGlSix-38" value="LOOP" style="shape=umlFrame;whiteSpace=wrap;html=1;pointerEvents=0;fillColor=#e1d5e7;strokeColor=#9673a6;fontStyle=1;shadow=1;" vertex="1" parent="1">
          <mxGeometry x="10" y="886" width="780" height="126" as="geometry" />
        </mxCell>
        <mxCell id="ImFzBhfU0JCTrMEGlSix-39" value="Add file&lt;div&gt;to zip&lt;/div&gt;" style="html=1;verticalAlign=bottom;endArrow=block;curved=0;rounded=0;shadow=1;" edge="1" parent="1">
          <mxGeometry x="0.25" y="-30" width="80" relative="1" as="geometry">
            <mxPoint x="424.9999999999998" y="962.0000000000001" as="sourcePoint" />
            <mxPoint x="425" y="992" as="targetPoint" />
            <Array as="points">
              <mxPoint x="470" y="962" />
              <mxPoint x="470" y="992" />
            </Array>
            <mxPoint x="30" y="30" as="offset" />
          </mxGeometry>
        </mxCell>
        <mxCell id="ImFzBhfU0JCTrMEGlSix-40" value="Initialize&amp;nbsp;&lt;div&gt;zip&lt;/div&gt;" style="html=1;verticalAlign=bottom;endArrow=block;curved=0;rounded=0;shadow=1;" edge="1" parent="1">
          <mxGeometry x="0.25" y="-30" width="80" relative="1" as="geometry">
            <mxPoint x="424.9999999999998" y="840.0000000000001" as="sourcePoint" />
            <mxPoint x="425" y="870" as="targetPoint" />
            <Array as="points">
              <mxPoint x="470" y="840" />
              <mxPoint x="470" y="870" />
            </Array>
            <mxPoint x="30" y="30" as="offset" />
          </mxGeometry>
        </mxCell>
        <mxCell id="ImFzBhfU0JCTrMEGlSix-41" value="&lt;b&gt;&lt;font color=&quot;#ff66ff&quot;&gt;[For Each File of Files And Folders]&lt;/font&gt;&lt;/b&gt;" style="text;html=1;align=center;verticalAlign=middle;resizable=0;points=[];autosize=1;strokeColor=none;fillColor=none;shadow=1;" vertex="1" parent="1">
          <mxGeometry y="913" width="230" height="30" as="geometry" />
        </mxCell>
      </root>
    </mxGraphModel>
  </diagram>
</mxfile>
